<?xml version="1.0" encoding="UTF-8"?><svg id="Capa_1" xmlns="http://www.w3.org/2000/svg" viewBox="0 0 817.87 213.34"><defs><style>.cls-1{fill:#dc0814;stroke-width:0px;}</style></defs><path class="cls-1" d="M535.1,94.71c-2.74,2.81-6.7,5.88-10.31,5.88-12.24,0-13.3-16.83-29.08-16.83-7.15,0-13.63,4.18-18.32,10.92-1.5-4.98-6.09-8.65-11.54-8.65h-12.12v18.54c0,24.38-19,41.66-38.87,47.11,9.54-7,16.19-18.18,16.19-30.26,0-25.16-16.85-37.65-37.64-37.65-9.47,0-16.39,4.13-20.79,11.54-1.28-5.29-6.04-9.28-11.72-9.28h-12.12v18.35c0,21.74-17.63,39.37-39.36,39.37-8.08.35-16.8-3.42-22.79-10.33,22.81-4.01,36.09-14.22,36.09-27.92,0-12.55-11.5-21.77-27.94-21.77-21.83,0-37.87,13.86-37.87,37.19,0,16.34-15.59,33.69-36.63,33.69-5.15,0-10.14-.4-15.05-1.04,20.57-12.96,33.15-31.13,33.15-53.44,0-49.88-49.81-75.75-111.23-75.75-43.21,0-78.25,15.79-78.25,36.77,0,14.16,23.88,24.9,53.34,24.9v47.35c-29.87.4-53.34,4.51-53.34,18.84,0,16.24,28.93,23.66,64.62,23.66,30.55,0,58.53-5.65,80.24-16.03,7.81,1.45,16.05,2.4,25.21,2.4,16.85,0,32.99-11,40.45-27.13,5.39,14.55,18.97,23.95,35.13,23.95,24.05,0,44.5-13.61,54.23-33.55v62.95h24.2v-42.38c5.04,10.61,15.62,14.38,26.4,14.38,22.06,0,44.53-11.29,54.34-33.12v29.52h24.21v-40.47h0c.08-6.88,5.69-12.43,12.6-12.43s13.42,7.16,22.45,7.16c4.76,0,10.72-2.88,15.26-6.54-2.32,4.94-3.64,10.58-3.64,16.83,0,22.79,16.86,37.65,37.65,37.65,11.39,0,19.05-6.92,23.1-17.34,4.7,10.22,15.01,17.34,27.01,17.34,16.81,0,31.63-11.41,40.51-28.77.52,15.97,13.6,28.77,29.71,28.77s31.63-11.4,40.49-28.75c.54,15.97,13.62,28.75,29.71,28.75s31.51-11.32,40.4-28.56l-5.12-2.74c-5.72,12.22-15.6,20.09-26.72,19.43-7.77-.47-14.08-7.81-14.08-15.6v-45.57h-24.19l-.02,17.87c-.27,24.5-14.44,44.17-31.68,43.32-8.06-.4-14.32-7.28-14.32-15.37v-35.09h30.26v-10.73h-30.26v-22.03h-24.18l-.02,22.03h-29.98v10.73h29.96v6.97c-.2,24.59-14.41,44.34-31.7,43.48-8.06-.4-14.31-7.28-14.31-15.37v-45.81h-12.12c-5.66,0-10.39,3.95-11.71,9.2-4.59-7.64-11.7-11.47-20.76-11.47-10.7,0-20.37,3.96-27.19,10.96M62.59,63.68c0-14.75,26.27-23.77,58.89-23.77,48.02,0,86.96,23.6,86.96,62.23,0,18.48-12.25,34.47-29.9,45.6-17.04-4.79-34.11-10.7-53.45-13.19,4.44-1.67,7.64-5.93,7.64-10.93V51.78h-18.78c-6.44,0-11.7,5.27-11.7,11.7v15.55c-21.9,0-39.67-6.17-39.67-15.35M65.38,152.21c0-8.6,17.91-9.89,40.01-9.89,25.73,0,44.34,5.8,62.72,11.14-14.36,6.8-30.99,10.7-47.13,10.7-33.5,0-55.59-5.1-55.59-11.95M279.28,114.01c0-9.83,7.07-17.17,13.57-17.17s10.92,4.74,10.92,11.17c0,9.22-15.31,16.94-21.51,18.9-2.12-4.19-2.98-8.65-2.98-12.9M387.01,96.25c10.82,0,19.6,9.78,19.6,25.16s-8.78,25.16-19.6,25.16c-11.38,0-13.95-11.27-13.95-25.16l-.06-20.9c4.01-2.69,8.83-4.26,14.01-4.26M568.69,146.57h0c-10.83,0-19.6-9.78-19.6-25.16s8.77-25.16,19.6-25.16c5.17,0,9.97,1.56,13.96,4.24l-.03,22.07c-.18,15.59-3.89,24.02-13.93,24.02"/><path class="cls-1" d="M735.16,73.27c8.66,0,15.69-6.08,15.69-15.68s-7.03-15.68-15.69-15.68-15.7,6.08-15.7,15.68,7.03,15.68,15.7,15.68"/></svg>