<svg xmlns="http://www.w3.org/2000/svg" width="4282" height="1024" viewBox="0 0 4282 1024"><g id="icomoon-ignore"></g><path fill="#e38833" d="M121.98 820.65c-38.25 0-68.49-30.24-68.49-68.49v-485.65c0-38.24 30.24-68.49 68.49-68.49h345.11c34.69 0 61.37 26.68 61.37 61.37s-26.68 60.48-61.37 60.48h-277.51v126.31h237.49c34.69 0 61.37 26.68 61.37 61.37s-26.69 60.48-61.37 60.48h-237.49v130.75h281.95c34.69 0 61.38 26.68 61.38 61.37s-26.69 60.48-61.38 60.48h-349.55z"></path><path fill="#e38833" d="M837.17 324.32h-131.64c-34.69 0-63.16-28.46-63.16-63.15s28.46-63.15 63.16-63.15h400.25c34.69 0 63.16 28.46 63.16 63.15s-28.46 63.15-63.16 63.15h-131.64v433.17c0 38.25-30.24 68.49-68.49 68.49s-68.49-30.24-68.49-68.49v-433.17z"></path><path fill="#e38833" d="M1173.8 732.59l217.030-490.1c15.12-34.69 41.8-54.26 80.050-54.26h8.010c38.25 0 64.040 19.57 79.17 54.26l217.030 490.1c4.45 10.67 7.12 19.57 7.12 27.57 0 36.47-28.46 65.82-64.93 65.82-32.020 0-52.48-18.68-65.82-47.15l-41.8-97.84h-273.95l-43.59 102.29c-11.57 27.57-34.69 42.69-63.16 42.69-35.57 0-63.15-28.46-63.15-64.040 0-9.79 3.56-19.57 8.010-29.36zM1558.94 560.030l-86.28-205.47-86.28 205.47h172.56z"></path><path fill="#e38833" d="M1896.1 266.5c0-38.24 30.25-68.49 68.5-68.49h185.9c148.53 0 238.37 87.17 238.37 215.25v1.78c0 144.99-112.070 218.81-251.71 218.81h-104.080v123.63c0 38.25-30.23 68.49-68.48 68.49s-68.5-30.24-68.5-68.49v-490.99zM2141.6 511.99c68.49 0 108.52-40.91 108.52-94.28v-1.78c0-61.37-42.69-94.28-111.19-94.28h-105.85v190.35h108.52z"></path><path fill="#e38833" d="M2431.090 732.59l217.030-490.1c15.12-34.69 41.8-54.26 80.050-54.26h8.010c38.25 0 64.040 19.57 79.17 54.26l217.030 490.1c4.45 10.67 7.12 19.57 7.12 27.57 0 36.47-28.46 65.82-64.93 65.82-32.020 0-52.48-18.68-65.82-47.15l-41.8-97.84h-273.95l-43.59 102.29c-11.57 27.57-34.69 42.69-63.16 42.69-35.57 0-63.15-28.46-63.15-64.040 0-9.79 3.56-19.57 8.010-29.36zM2816.23 560.030l-86.28-205.47-86.28 205.47h172.56z"></path><path fill="#e38833" d="M3402.83 147.85v0c-26.74 26.75-26.74 70.11 0 96.85l234.45 234.45c18.14 18.14 18.14 47.56 0 65.7l-234.45 234.45c-26.74 26.74-26.75 70.1 0 96.85v0c26.74 26.75 70.11 26.75 96.86 0l307.75-307.75c31.16-31.16 31.16-81.67 0-112.82l-307.75-307.75c-26.75-26.75-70.11-26.75-96.86 0z"></path><path fill="#e38833" d="M3800.54 147.85v0c-26.74 26.75-26.74 70.11 0 96.85l234.45 234.45c18.14 18.14 18.14 47.56 0 65.7l-234.45 234.45c-26.74 26.74-26.75 70.1 0 96.85v0c26.74 26.75 70.11 26.75 96.86 0l307.75-307.75c31.16-31.16 31.16-81.67 0-112.82l-307.75-307.75c-26.75-26.75-70.11-26.75-96.86 0z"></path></svg>