<svg xmlns="http://www.w3.org/2000/svg" width="576" height="48" viewBox="0 0 576 48" fill="none">
<path fill-rule="evenodd" clip-rule="evenodd" d="M30.2311 0H0V31.9275C0 40.8041 7.1959 48 16.0725 48H48V0H30.2311Z" fill="#FFDD00"/>
<path fill-rule="evenodd" clip-rule="evenodd" d="M40 24H32.8216V15.2688H24V8H40V24Z" fill="#0F265C"/>
<path d="M573.333 42.0852L560.21 8.46156C559.61 6.96872 558.178 5.99724 556.592 6.0072H551.936L537.849 42.1098H545.785L548.607 35.0169H562.55L565.421 42.1098L573.333 42.0852ZM560.066 28.194H551.116L555.603 16.3889L560.066 28.194ZM524.123 42.0852H531.745V5.98266H528.031C525.895 5.96907 524.149 7.71235 524.123 9.88505V20.1439H509.022V5.98266H501.351V42.0852H509.022V27.1632H524.123V42.0852ZM471.728 32.4154C469.506 30.1905 468.306 27.1175 468.423 23.9481C468.303 20.8357 469.508 17.8219 471.728 15.6772C473.659 13.737 476.251 12.6293 478.965 12.5848C481.576 12.5722 484.119 13.4347 486.201 15.039C487.753 16.2006 489.91 16.0115 491.243 14.5973L493.655 12.143C490.191 7.7025 484.872 5.1832 479.302 5.34462C474.314 5.17749 469.464 7.03113 465.817 10.4986C462.179 14.0079 460.217 18.9506 460.438 24.0463C460.239 29.1093 462.2 34.013 465.817 37.4957C469.587 40.9278 474.512 42.7477 479.568 42.5761C485.226 42.7691 490.646 40.2526 494.21 35.7777L489.12 30.3783C486.916 33.5746 483.309 35.4647 479.471 35.4341C476.599 35.5074 473.816 34.4222 471.728 32.4154ZM446.64 42.0853H453.587V5.98274H445.988V30.5256L432.552 7.94616C431.847 6.76375 430.582 6.04591 429.223 6.05637H422.227V42.0853H429.874V17.7387L443.311 40.1954C444.016 41.3778 445.28 42.0957 446.64 42.0853ZM405.221 42.0852H412.844V5.98274H405.221V42.0852ZM388.335 42.0852H395.933V5.98266H392.122C391.098 5.97621 390.114 6.38368 389.386 7.11551C388.657 7.84734 388.245 8.84357 388.238 9.88505V20.1439H373.113V5.98266H365.587V42.0852H373.234V27.1632H388.359L388.335 42.0852ZM335.795 32.4154C333.582 30.1863 332.392 27.1138 332.514 23.9481C332.369 20.9852 333.425 18.0914 335.436 15.9433C337.447 13.7952 340.237 12.5811 343.152 12.5848C345.765 12.5648 348.311 13.4281 350.389 15.039C351.952 16.2237 354.133 16.0562 355.503 14.6464L357.916 12.1921C354.426 7.71626 349.054 5.19303 343.442 5.39371C338.46 5.22228 333.616 7.07698 329.981 10.5477C326.322 14.0545 324.349 19.0109 324.578 24.1199C324.375 29.1885 326.347 34.0967 329.981 37.5693C333.784 41.0419 338.771 42.8651 343.876 42.6497C349.476 42.7886 354.822 40.2775 358.35 35.8513L353.26 30.4519C351.061 33.6548 347.45 35.5469 343.611 35.5077C340.687 35.5942 337.853 34.4796 335.747 32.4154H335.795ZM310.104 42.0852H317.703V5.98274H310.104V42.0852ZM303.663 18.0823C303.807 14.6725 302.369 11.3918 299.78 9.22239C296.872 6.90577 293.239 5.73762 289.551 5.93365H274.933V42.0852H282.604V30.6483H289.551C293.245 30.8158 296.869 29.5925 299.731 27.2123C302.319 24.9229 303.754 21.5691 303.639 18.0823H303.663ZM296.016 18.2296C296.016 21.7883 293.387 23.6045 288.201 23.6045H282.604V13.0265H288.201C293.508 13.0265 296.016 14.5727 296.016 18.2296ZM250.665 37.3975C254.271 33.9045 256.237 29.0104 256.069 23.9481C256.22 18.9319 254.253 14.0898 250.665 10.6459C247.133 7.12072 242.344 5.20729 237.398 5.34462C232.488 5.21524 227.74 7.12997 224.251 10.6459C220.704 14.1146 218.759 18.9445 218.895 23.9481C218.766 28.972 220.708 33.8221 224.251 37.3239C227.757 40.8074 232.498 42.7015 237.398 42.5761C242.334 42.7068 247.114 40.8144 250.665 37.3239V37.3975ZM248.253 23.9481C248.342 26.937 247.297 29.8462 245.334 32.0718C243.411 34.2756 240.631 35.5056 237.735 35.4341C234.749 35.5891 231.849 34.3838 229.823 32.1454C227.792 29.9228 226.693 26.9821 226.759 23.9481C226.683 20.9642 227.737 18.0646 229.702 15.849C231.783 13.6238 234.723 12.4471 237.735 12.6338C240.649 12.5544 243.451 13.7736 245.406 15.9717C247.339 18.1558 248.375 21.0104 248.301 23.9481H248.253ZM192.384 32.4154C190.196 30.1763 189.04 27.1011 189.2 23.9481C189.055 20.9852 190.111 18.0914 192.122 15.9433C194.133 13.7952 196.922 12.5811 199.838 12.5848C202.45 12.5722 204.993 13.4347 207.075 15.039C208.626 16.2006 210.784 16.0115 212.117 14.5973L214.529 12.143C211.039 7.66717 205.667 5.14394 200.055 5.34462C195.066 5.17478 190.216 7.0288 186.571 10.4986C182.926 14.0054 180.955 18.9473 181.167 24.0463C180.974 29.1131 182.944 34.0174 186.571 37.4957C190.334 40.9218 195.249 42.7413 200.297 42.5761C205.962 42.7691 211.389 40.2535 214.963 35.7777L209.873 30.3783C207.645 33.6108 203.984 35.5055 200.104 35.4341C197.18 35.5206 194.346 34.406 192.24 32.3417L192.384 32.4154ZM167.417 42.0853H174.364V5.9827H166.766V30.5256L153.305 7.87253C152.597 6.69375 151.334 5.97716 149.976 5.9827H142.981V42.0853H150.652V17.7387L164.088 40.1954C164.793 41.3778 166.058 42.0957 167.417 42.0853ZM129.448 42.0852H137.36L124.358 8.46156C123.757 6.96872 122.325 5.99724 120.739 6.0072H115.963L101.875 42.0852H109.884L112.706 34.9924H126.649L129.448 42.0852ZM124.092 28.194H115.143L119.533 16.3889L124.092 28.194ZM94.2764 23.2854C96.6378 21.6094 98.0293 18.8517 97.9913 15.9226C97.9913 9.49236 93.1668 5.93365 85.5439 5.93365H69.3333V42.0852H86.4123C89.6511 42.2414 92.8393 41.2239 95.4102 39.2137C97.6743 37.3403 98.9499 34.4996 98.8598 31.5318C98.8229 28.1653 97.093 25.0528 94.2764 23.2854ZM90.272 16.757C90.272 19.2113 88.2698 20.463 84.2895 20.463H77.0526V13.1002H84.0483C88.511 13.1002 90.3202 14.0819 90.3202 16.8307L90.272 16.757ZM91.1887 30.9428C91.1887 33.9861 88.9694 35.1151 84.6996 35.1151H77.0044V26.8932H84.8685C89.0417 26.8932 91.1404 28.2431 91.1404 30.8692L91.1887 30.9428Z" fill="#0F265C"/>
<div xmlns="" id="divScriptsUsed" style="display: none"/><script xmlns="" id="globalVarsDetection" src="chrome-extension://cmkdbmfndkfgebldhnkbfhlneefdaaip/js/wrs_env.js"/></svg>